<svg width="68" height="107" viewBox="0 0 68 107" fill="none" xmlns="http://www.w3.org/2000/svg">
<g filter="url(#filter0_i_626_5)">
<path d="M34.032 0.743995C12.72 0.743995 0.48 13.848 0.768 31.272H20.208C20.208 22.92 25.392 17.88 33.888 17.88C42.24 17.88 47.28 22.92 47.28 31.272C47.424 43.944 36.48 46.536 21.648 46.536H14.88L15.6 71.304H33.6L34.32 60.216C53.328 60.216 67.296 50.712 67.296 31.272C67.296 11.832 53.616 0.743995 34.032 0.743995ZM24.672 106.008C31.872 106.008 37.2 100.824 37.2 94.056C37.2 87.432 31.872 82.104 24.672 82.104C17.184 82.104 12 87.432 12 94.056C12 100.824 17.184 106.008 24.672 106.008Z" fill="#00295D"/>
</g>
<defs>
<filter id="filter0_i_626_5" x="0.47998" y="0.743896" width="66.816" height="109.264" filterUnits="userSpaceOnUse" color-interpolation-filters="sRGB">
<feFlood flood-opacity="0" result="BackgroundImageFix"/>
<feBlend mode="normal" in="SourceGraphic" in2="BackgroundImageFix" result="shape"/>
<feColorMatrix in="SourceAlpha" type="matrix" values="0 0 0 0 0 0 0 0 0 0 0 0 0 0 0 0 0 0 127 0" result="hardAlpha"/>
<feOffset dy="4"/>
<feGaussianBlur stdDeviation="2"/>
<feComposite in2="hardAlpha" operator="arithmetic" k2="-1" k3="1"/>
<feColorMatrix type="matrix" values="0 0 0 0 0 0 0 0 0 0 0 0 0 0 0 0 0 0 0.25 0"/>
<feBlend mode="normal" in2="shape" result="effect1_innerShadow_626_5"/>
</filter>
</defs>
</svg>
